<svg xmlns="http://www.w3.org/2000/svg" xmlns:xlink="http://www.w3.org/1999/xlink" width="351" height="641" viewBox="0 0 351 641"><defs><filter id="a" x="4" y="7" width="101" height="101" filterUnits="userSpaceOnUse"><feOffset dy="3" input="SourceAlpha"/><feGaussianBlur stdDeviation="3" result="b"/><feFlood flood-opacity="0.161"/><feComposite operator="in" in2="b"/><feComposite in="SourceGraphic"/></filter><filter id="c" x="4" y="110" width="278" height="35" filterUnits="userSpaceOnUse"><feOffset dy="3" input="SourceAlpha"/><feGaussianBlur stdDeviation="3" result="d"/><feFlood flood-opacity="0.161"/><feComposite operator="in" in2="d"/><feComposite in="SourceGraphic"/></filter><filter id="e" x="4" y="149" width="296" height="35" filterUnits="userSpaceOnUse"><feOffset dy="3" input="SourceAlpha"/><feGaussianBlur stdDeviation="3" result="f"/><feFlood flood-opacity="0.161"/><feComposite operator="in" in2="f"/><feComposite in="SourceGraphic"/></filter><filter id="g" x="4" y="188" width="323" height="35" filterUnits="userSpaceOnUse"><feOffset dy="3" input="SourceAlpha"/><feGaussianBlur stdDeviation="3" result="h"/><feFlood flood-opacity="0.161"/><feComposite operator="in" in2="h"/><feComposite in="SourceGraphic"/></filter><filter id="i" x="4" y="227" width="296" height="35" filterUnits="userSpaceOnUse"><feOffset dy="3" input="SourceAlpha"/><feGaussianBlur stdDeviation="3" result="j"/><feFlood flood-opacity="0.161"/><feComposite operator="in" in2="j"/><feComposite in="SourceGraphic"/></filter><filter id="k" x="4" y="256" width="101" height="35" filterUnits="userSpaceOnUse"><feOffset dy="3" input="SourceAlpha"/><feGaussianBlur stdDeviation="3" result="l"/><feFlood flood-opacity="0.161"/><feComposite operator="in" in2="l"/><feComposite in="SourceGraphic"/></filter><filter id="m" x="4" y="295" width="142" height="35" filterUnits="userSpaceOnUse"><feOffset dy="3" input="SourceAlpha"/><feGaussianBlur stdDeviation="3" result="n"/><feFlood flood-opacity="0.161"/><feComposite operator="in" in2="n"/><feComposite in="SourceGraphic"/></filter><filter id="o" x="4" y="343" width="104" height="35" filterUnits="userSpaceOnUse"><feOffset dy="3" input="SourceAlpha"/><feGaussianBlur stdDeviation="3" result="p"/><feFlood flood-opacity="0.161"/><feComposite operator="in" in2="p"/><feComposite in="SourceGraphic"/></filter><filter id="q" x="4" y="386" width="208" height="35" filterUnits="userSpaceOnUse"><feOffset dy="3" input="SourceAlpha"/><feGaussianBlur stdDeviation="3" result="r"/><feFlood flood-opacity="0.161"/><feComposite operator="in" in2="r"/><feComposite in="SourceGraphic"/></filter><filter id="s" x="4" y="434" width="157" height="35" filterUnits="userSpaceOnUse"><feOffset dy="3" input="SourceAlpha"/><feGaussianBlur stdDeviation="3" result="t"/><feFlood flood-opacity="0.161"/><feComposite operator="in" in2="t"/><feComposite in="SourceGraphic"/></filter><filter id="u" x="4" y="477" width="262" height="35" filterUnits="userSpaceOnUse"><feOffset dy="3" input="SourceAlpha"/><feGaussianBlur stdDeviation="3" result="v"/><feFlood flood-opacity="0.161"/><feComposite operator="in" in2="v"/><feComposite in="SourceGraphic"/></filter><filter id="w" x="4" y="520" width="341" height="35" filterUnits="userSpaceOnUse"><feOffset dy="3" input="SourceAlpha"/><feGaussianBlur stdDeviation="3" result="x"/><feFlood flood-opacity="0.161"/><feComposite operator="in" in2="x"/><feComposite in="SourceGraphic"/></filter><filter id="y" x="5" y="563" width="198" height="35" filterUnits="userSpaceOnUse"><feOffset dy="3" input="SourceAlpha"/><feGaussianBlur stdDeviation="3" result="z"/><feFlood flood-opacity="0.161"/><feComposite operator="in" in2="z"/><feComposite in="SourceGraphic"/></filter></defs><g transform="translate(-55 -102)"><rect width="351" height="641" transform="translate(55 102)" fill="#fff" opacity="0.263"/><g transform="matrix(1, 0, 0, 1, 55, 102)" filter="url(#a)"><circle cx="41.5" cy="41.5" r="41.5" transform="translate(13 13)" fill="#fff" opacity="0.816"/></g><g transform="matrix(1, 0, 0, 1, 55, 102)" filter="url(#c)"><rect width="260" height="17" transform="translate(13 116)" fill="#fff" opacity="0.82"/></g><g transform="matrix(1, 0, 0, 1, 55, 102)" filter="url(#e)"><rect width="278" height="17" transform="translate(13 155)" fill="#fff" opacity="0.82"/></g><g transform="matrix(1, 0, 0, 1, 55, 102)" filter="url(#g)"><rect width="305" height="17" transform="translate(13 194)" fill="#fff" opacity="0.82"/></g><g transform="matrix(1, 0, 0, 1, 55, 102)" filter="url(#i)"><rect width="278" height="17" transform="translate(13 233)" fill="#fff" opacity="0.82"/></g><g transform="matrix(1, 0, 0, 1, 55, 102)" filter="url(#k)"><rect width="83" height="17" transform="translate(13 262)" fill="#fff" opacity="0.82"/></g><g transform="matrix(1, 0, 0, 1, 55, 102)" filter="url(#m)"><rect width="124" height="17" transform="translate(13 301)" fill="#fff" opacity="0.82"/></g><g transform="matrix(1, 0, 0, 1, 55, 102)" filter="url(#o)"><rect width="86" height="17" transform="translate(13 349)" fill="#fff" opacity="0.82"/></g><g transform="matrix(1, 0, 0, 1, 55, 102)" filter="url(#q)"><rect width="190" height="17" transform="translate(13 392)" fill="#fff" opacity="0.82"/></g><g transform="matrix(1, 0, 0, 1, 55, 102)" filter="url(#s)"><rect width="139" height="17" transform="translate(13 440)" fill="#fff" opacity="0.82"/></g><g transform="matrix(1, 0, 0, 1, 55, 102)" filter="url(#u)"><rect width="244" height="17" transform="translate(13 483)" fill="#fff" opacity="0.82"/></g><g transform="matrix(1, 0, 0, 1, 55, 102)" filter="url(#w)"><rect width="323" height="17" transform="translate(13 526)" fill="#fff" opacity="0.82"/></g><g transform="matrix(1, 0, 0, 1, 55, 102)" filter="url(#y)"><rect width="180" height="17" transform="translate(14 569)" fill="#fff" opacity="0.82"/></g></g></svg>